<mxfile host="Electron" agent="Mozilla/5.0 (Windows NT 10.0; Win64; x64) AppleWebKit/537.36 (KHTML, like Gecko) draw.io/24.7.17 Chrome/128.0.6613.36 Electron/32.0.1 Safari/537.36" version="24.7.17">
  <diagram name="Page-1" id="YjsBIPlaQm0PU4aFn0Pk">
    <mxGraphModel dx="1050" dy="1721" grid="1" gridSize="10" guides="1" tooltips="1" connect="1" arrows="1" fold="1" page="1" pageScale="1" pageWidth="850" pageHeight="1100" math="0" shadow="0">
      <root>
        <mxCell id="0" />
        <mxCell id="1" parent="0" />
        <mxCell id="QTwVQ_X7H1gUuf4jV73K-2" value="" style="rounded=0;whiteSpace=wrap;html=1;" parent="1" vertex="1">
          <mxGeometry x="120" y="-190" width="940" height="1050" as="geometry" />
        </mxCell>
        <mxCell id="TBcClljO8CuMETRbptpR-1" value="Admin /(Owner)" style="shape=umlActor;verticalLabelPosition=bottom;verticalAlign=top;html=1;outlineConnect=0;" parent="1" vertex="1">
          <mxGeometry x="1120" y="340" width="30" height="60" as="geometry" />
        </mxCell>
        <mxCell id="TBcClljO8CuMETRbptpR-3" value="Cashier" style="shape=umlActor;verticalLabelPosition=bottom;verticalAlign=top;html=1;outlineConnect=0;" parent="1" vertex="1">
          <mxGeometry x="30" y="150" width="30" height="60" as="geometry" />
        </mxCell>
        <mxCell id="TBcClljO8CuMETRbptpR-4" value="Sales Associate" style="shape=umlActor;verticalLabelPosition=bottom;verticalAlign=top;html=1;outlineConnect=0;" parent="1" vertex="1">
          <mxGeometry x="40" y="400" width="30" height="60" as="geometry" />
        </mxCell>
        <mxCell id="TBcClljO8CuMETRbptpR-5" value="Store manager" style="shape=umlActor;verticalLabelPosition=bottom;verticalAlign=top;html=1;outlineConnect=0;" parent="1" vertex="1">
          <mxGeometry x="50" y="680" width="30" height="60" as="geometry" />
        </mxCell>
        <mxCell id="TBcClljO8CuMETRbptpR-22" value="user management&amp;nbsp;" style="ellipse;whiteSpace=wrap;html=1;" parent="1" vertex="1">
          <mxGeometry x="800" y="250" width="120" height="50" as="geometry" />
        </mxCell>
        <mxCell id="TBcClljO8CuMETRbptpR-23" value="inventory control" style="ellipse;whiteSpace=wrap;html=1;" parent="1" vertex="1">
          <mxGeometry x="740" y="650" width="120" height="50" as="geometry" />
        </mxCell>
        <mxCell id="TBcClljO8CuMETRbptpR-24" value="monitor jewellery level" style="ellipse;whiteSpace=wrap;html=1;" parent="1" vertex="1">
          <mxGeometry x="420" y="760" width="120" height="50" as="geometry" />
        </mxCell>
        <mxCell id="TBcClljO8CuMETRbptpR-25" value="&lt;font style=&quot;font-size: 12px;&quot;&gt;monitor r&lt;span style=&quot;line-height: 107%;&quot;&gt;aw materials&lt;/span&gt;&amp;nbsp;level&lt;/font&gt;" style="ellipse;whiteSpace=wrap;html=1;" parent="1" vertex="1">
          <mxGeometry x="730" y="770" width="120" height="50" as="geometry" />
        </mxCell>
        <mxCell id="TBcClljO8CuMETRbptpR-29" value="process sales" style="ellipse;whiteSpace=wrap;html=1;" parent="1" vertex="1">
          <mxGeometry x="290" y="30" width="120" height="50" as="geometry" />
        </mxCell>
        <mxCell id="TBcClljO8CuMETRbptpR-31" value="supplier management" style="ellipse;whiteSpace=wrap;html=1;" parent="1" vertex="1">
          <mxGeometry x="810" y="140" width="120" height="50" as="geometry" />
        </mxCell>
        <mxCell id="TBcClljO8CuMETRbptpR-32" value="place custom orders" style="ellipse;whiteSpace=wrap;html=1;" parent="1" vertex="1">
          <mxGeometry x="320" y="530" width="120" height="50" as="geometry" />
        </mxCell>
        <mxCell id="TBcClljO8CuMETRbptpR-33" value="view availability" style="ellipse;whiteSpace=wrap;html=1;" parent="1" vertex="1">
          <mxGeometry x="190" y="210" width="120" height="50" as="geometry" />
        </mxCell>
        <mxCell id="TBcClljO8CuMETRbptpR-34" value="record cusom orders" style="ellipse;whiteSpace=wrap;html=1;" parent="1" vertex="1">
          <mxGeometry x="340" y="390" width="120" height="50" as="geometry" />
        </mxCell>
        <mxCell id="TBcClljO8CuMETRbptpR-35" value="view sales summery" style="ellipse;whiteSpace=wrap;html=1;" parent="1" vertex="1">
          <mxGeometry x="320" y="270" width="120" height="50" as="geometry" />
        </mxCell>
        <mxCell id="TBcClljO8CuMETRbptpR-36" value="record store transactions" style="ellipse;whiteSpace=wrap;html=1;" parent="1" vertex="1">
          <mxGeometry x="520" y="15" width="120" height="50" as="geometry" />
        </mxCell>
        <mxCell id="TBcClljO8CuMETRbptpR-37" value="generate invoices" style="ellipse;whiteSpace=wrap;html=1;" parent="1" vertex="1">
          <mxGeometry x="510" y="120" width="120" height="50" as="geometry" />
        </mxCell>
        <mxCell id="TBcClljO8CuMETRbptpR-39" value="Access to all system features" style="ellipse;whiteSpace=wrap;html=1;" parent="1" vertex="1">
          <mxGeometry x="900" y="-35" width="120" height="50" as="geometry" />
        </mxCell>
        <mxCell id="TBcClljO8CuMETRbptpR-55" value="generate sales report&amp;nbsp;&amp;nbsp;" style="ellipse;whiteSpace=wrap;html=1;" parent="1" vertex="1">
          <mxGeometry x="510" y="650" width="120" height="50" as="geometry" />
        </mxCell>
        <mxCell id="TBcClljO8CuMETRbptpR-62" value="" style="endArrow=classic;html=1;rounded=0;entryX=1;entryY=0;entryDx=0;entryDy=0;" parent="1" source="TBcClljO8CuMETRbptpR-1" target="TBcClljO8CuMETRbptpR-23" edge="1">
          <mxGeometry width="50" height="50" relative="1" as="geometry">
            <mxPoint x="790" y="470" as="sourcePoint" />
            <mxPoint x="660" y="260" as="targetPoint" />
          </mxGeometry>
        </mxCell>
        <mxCell id="TBcClljO8CuMETRbptpR-66" value="Receive Notifications / Alerts" style="ellipse;whiteSpace=wrap;html=1;" parent="1" vertex="1">
          <mxGeometry x="510" y="400" width="120" height="50" as="geometry" />
        </mxCell>
        <mxCell id="QTwVQ_X7H1gUuf4jV73K-4" value="" style="html=1;labelBackgroundColor=#ffffff;startArrow=none;startFill=0;startSize=6;endArrow=classic;endFill=1;endSize=6;jettySize=auto;orthogonalLoop=1;strokeWidth=1;dashed=1;fontSize=14;rounded=0;exitX=1;exitY=0.5;exitDx=0;exitDy=0;entryX=0.057;entryY=0.752;entryDx=0;entryDy=0;entryPerimeter=0;" parent="1" source="TBcClljO8CuMETRbptpR-29" target="TBcClljO8CuMETRbptpR-36" edge="1">
          <mxGeometry width="60" height="60" relative="1" as="geometry">
            <mxPoint x="510" y="320" as="sourcePoint" />
            <mxPoint x="570" y="260" as="targetPoint" />
          </mxGeometry>
        </mxCell>
        <mxCell id="QTwVQ_X7H1gUuf4jV73K-5" value="&amp;lt;&amp;lt;include&amp;gt;&amp;gt;" style="text;html=1;align=center;verticalAlign=middle;whiteSpace=wrap;rounded=0;rotation=0;" parent="1" vertex="1">
          <mxGeometry x="425" y="25" width="60" height="30" as="geometry" />
        </mxCell>
        <mxCell id="QTwVQ_X7H1gUuf4jV73K-6" value="" style="html=1;labelBackgroundColor=#ffffff;startArrow=none;startFill=0;startSize=6;endArrow=classic;endFill=1;endSize=6;jettySize=auto;orthogonalLoop=1;strokeWidth=1;dashed=1;fontSize=14;rounded=0;exitX=1;exitY=1;exitDx=0;exitDy=0;entryX=0;entryY=0;entryDx=0;entryDy=0;" parent="1" source="TBcClljO8CuMETRbptpR-29" target="TBcClljO8CuMETRbptpR-37" edge="1">
          <mxGeometry width="60" height="60" relative="1" as="geometry">
            <mxPoint x="510" y="320" as="sourcePoint" />
            <mxPoint x="570" y="260" as="targetPoint" />
          </mxGeometry>
        </mxCell>
        <mxCell id="QTwVQ_X7H1gUuf4jV73K-7" value="&amp;lt;&amp;lt;extend&amp;gt;&amp;gt;" style="text;html=1;align=center;verticalAlign=middle;whiteSpace=wrap;rounded=0;rotation=15;" parent="1" vertex="1">
          <mxGeometry x="440" y="80" width="60" height="30" as="geometry" />
        </mxCell>
        <mxCell id="QTwVQ_X7H1gUuf4jV73K-8" value="" style="endArrow=none;html=1;rounded=0;entryX=0;entryY=1;entryDx=0;entryDy=0;" parent="1" source="TBcClljO8CuMETRbptpR-3" target="TBcClljO8CuMETRbptpR-29" edge="1">
          <mxGeometry width="50" height="50" relative="1" as="geometry">
            <mxPoint x="480" y="280" as="sourcePoint" />
            <mxPoint x="530" y="230" as="targetPoint" />
          </mxGeometry>
        </mxCell>
        <mxCell id="QTwVQ_X7H1gUuf4jV73K-10" value="" style="endArrow=none;html=1;rounded=0;exitX=1;exitY=1;exitDx=0;exitDy=0;exitPerimeter=0;" parent="1" source="TBcClljO8CuMETRbptpR-3" target="TBcClljO8CuMETRbptpR-33" edge="1">
          <mxGeometry width="50" height="50" relative="1" as="geometry">
            <mxPoint x="480" y="310" as="sourcePoint" />
            <mxPoint x="530" y="260" as="targetPoint" />
          </mxGeometry>
        </mxCell>
        <mxCell id="QTwVQ_X7H1gUuf4jV73K-11" value="" style="endArrow=none;html=1;rounded=0;entryX=0.32;entryY=1.008;entryDx=0;entryDy=0;entryPerimeter=0;" parent="1" source="TBcClljO8CuMETRbptpR-4" target="TBcClljO8CuMETRbptpR-35" edge="1">
          <mxGeometry width="50" height="50" relative="1" as="geometry">
            <mxPoint x="480" y="360" as="sourcePoint" />
            <mxPoint x="530" y="310" as="targetPoint" />
          </mxGeometry>
        </mxCell>
        <mxCell id="QTwVQ_X7H1gUuf4jV73K-12" value="" style="endArrow=none;html=1;rounded=0;entryX=0.071;entryY=0.72;entryDx=0;entryDy=0;entryPerimeter=0;" parent="1" source="TBcClljO8CuMETRbptpR-4" target="TBcClljO8CuMETRbptpR-33" edge="1">
          <mxGeometry width="50" height="50" relative="1" as="geometry">
            <mxPoint x="480" y="360" as="sourcePoint" />
            <mxPoint x="530" y="310" as="targetPoint" />
          </mxGeometry>
        </mxCell>
        <mxCell id="QTwVQ_X7H1gUuf4jV73K-13" value="" style="endArrow=none;html=1;rounded=0;entryX=0.085;entryY=0.755;entryDx=0;entryDy=0;entryPerimeter=0;" parent="1" source="TBcClljO8CuMETRbptpR-4" target="TBcClljO8CuMETRbptpR-34" edge="1">
          <mxGeometry width="50" height="50" relative="1" as="geometry">
            <mxPoint x="480" y="360" as="sourcePoint" />
            <mxPoint x="530" y="310" as="targetPoint" />
          </mxGeometry>
        </mxCell>
        <mxCell id="QTwVQ_X7H1gUuf4jV73K-14" value="" style="html=1;labelBackgroundColor=#ffffff;startArrow=none;startFill=0;startSize=6;endArrow=classic;endFill=1;endSize=6;jettySize=auto;orthogonalLoop=1;strokeWidth=1;dashed=1;fontSize=14;rounded=0;exitX=0.5;exitY=1;exitDx=0;exitDy=0;" parent="1" source="TBcClljO8CuMETRbptpR-34" target="TBcClljO8CuMETRbptpR-32" edge="1">
          <mxGeometry width="60" height="60" relative="1" as="geometry">
            <mxPoint x="470" y="480" as="sourcePoint" />
            <mxPoint x="530" y="420" as="targetPoint" />
          </mxGeometry>
        </mxCell>
        <mxCell id="QTwVQ_X7H1gUuf4jV73K-15" value="&amp;lt;&amp;lt;include&amp;gt;&amp;gt;" style="text;html=1;align=center;verticalAlign=middle;whiteSpace=wrap;rounded=0;rotation=0;" parent="1" vertex="1">
          <mxGeometry x="400" y="480" width="60" height="30" as="geometry" />
        </mxCell>
        <mxCell id="QTwVQ_X7H1gUuf4jV73K-16" value="" style="html=1;labelBackgroundColor=#ffffff;startArrow=none;startFill=0;startSize=6;endArrow=classic;endFill=1;endSize=6;jettySize=auto;orthogonalLoop=1;strokeWidth=1;dashed=1;fontSize=14;rounded=0;exitX=0.5;exitY=1;exitDx=0;exitDy=0;entryX=0.5;entryY=0;entryDx=0;entryDy=0;" parent="1" source="TBcClljO8CuMETRbptpR-23" target="TBcClljO8CuMETRbptpR-25" edge="1">
          <mxGeometry width="60" height="60" relative="1" as="geometry">
            <mxPoint x="580" y="530" as="sourcePoint" />
            <mxPoint x="640" y="470" as="targetPoint" />
          </mxGeometry>
        </mxCell>
        <mxCell id="QTwVQ_X7H1gUuf4jV73K-17" value="&amp;lt;&amp;lt;include&amp;gt;&amp;gt;" style="text;html=1;align=center;verticalAlign=middle;whiteSpace=wrap;rounded=0;rotation=0;" parent="1" vertex="1">
          <mxGeometry x="800" y="710" width="60" height="30" as="geometry" />
        </mxCell>
        <mxCell id="QTwVQ_X7H1gUuf4jV73K-18" value="" style="html=1;labelBackgroundColor=#ffffff;startArrow=none;startFill=0;startSize=6;endArrow=classic;endFill=1;endSize=6;jettySize=auto;orthogonalLoop=1;strokeWidth=1;dashed=1;fontSize=14;rounded=0;exitX=0.75;exitY=0.916;exitDx=0;exitDy=0;exitPerimeter=0;" parent="1" source="TBcClljO8CuMETRbptpR-29" target="TBcClljO8CuMETRbptpR-66" edge="1">
          <mxGeometry width="60" height="60" relative="1" as="geometry">
            <mxPoint x="580" y="320" as="sourcePoint" />
            <mxPoint x="640" y="260" as="targetPoint" />
          </mxGeometry>
        </mxCell>
        <mxCell id="QTwVQ_X7H1gUuf4jV73K-19" value="&amp;lt;&amp;lt;extend&amp;gt;&amp;gt;" style="text;html=1;align=center;verticalAlign=middle;whiteSpace=wrap;rounded=0;rotation=60;" parent="1" vertex="1">
          <mxGeometry x="450" y="220" width="60" height="30" as="geometry" />
        </mxCell>
        <mxCell id="QTwVQ_X7H1gUuf4jV73K-20" value="" style="html=1;labelBackgroundColor=#ffffff;startArrow=none;startFill=0;startSize=6;endArrow=classic;endFill=1;endSize=6;jettySize=auto;orthogonalLoop=1;strokeWidth=1;dashed=1;fontSize=14;rounded=0;exitX=0;exitY=0.5;exitDx=0;exitDy=0;entryX=1;entryY=0.5;entryDx=0;entryDy=0;" parent="1" source="TBcClljO8CuMETRbptpR-23" target="TBcClljO8CuMETRbptpR-24" edge="1">
          <mxGeometry width="60" height="60" relative="1" as="geometry">
            <mxPoint x="580" y="630" as="sourcePoint" />
            <mxPoint x="640" y="570" as="targetPoint" />
          </mxGeometry>
        </mxCell>
        <mxCell id="QTwVQ_X7H1gUuf4jV73K-21" value="&amp;lt;&amp;lt;include&amp;gt;&amp;gt;" style="text;html=1;align=center;verticalAlign=middle;whiteSpace=wrap;rounded=0;rotation=-30;" parent="1" vertex="1">
          <mxGeometry x="600" y="700" width="60" height="30" as="geometry" />
        </mxCell>
        <mxCell id="QTwVQ_X7H1gUuf4jV73K-22" value="" style="endArrow=none;html=1;rounded=0;exitX=0.618;exitY=0.738;exitDx=0;exitDy=0;exitPerimeter=0;entryX=0;entryY=0.5;entryDx=0;entryDy=0;" parent="1" source="TBcClljO8CuMETRbptpR-5" target="TBcClljO8CuMETRbptpR-24" edge="1">
          <mxGeometry width="50" height="50" relative="1" as="geometry">
            <mxPoint x="580" y="630" as="sourcePoint" />
            <mxPoint x="630" y="580" as="targetPoint" />
          </mxGeometry>
        </mxCell>
        <mxCell id="QTwVQ_X7H1gUuf4jV73K-23" value="" style="endArrow=none;html=1;rounded=0;exitX=0.75;exitY=0.1;exitDx=0;exitDy=0;exitPerimeter=0;entryX=0;entryY=1;entryDx=0;entryDy=0;" parent="1" source="TBcClljO8CuMETRbptpR-5" target="TBcClljO8CuMETRbptpR-32" edge="1">
          <mxGeometry width="50" height="50" relative="1" as="geometry">
            <mxPoint x="580" y="630" as="sourcePoint" />
            <mxPoint x="630" y="580" as="targetPoint" />
          </mxGeometry>
        </mxCell>
        <mxCell id="QTwVQ_X7H1gUuf4jV73K-24" value="" style="endArrow=none;html=1;rounded=0;entryX=0;entryY=0.5;entryDx=0;entryDy=0;" parent="1" source="TBcClljO8CuMETRbptpR-5" target="TKwz7FleylKgk5ALLyET-1" edge="1">
          <mxGeometry width="50" height="50" relative="1" as="geometry">
            <mxPoint x="580" y="630" as="sourcePoint" />
            <mxPoint x="630" y="580" as="targetPoint" />
          </mxGeometry>
        </mxCell>
        <mxCell id="QTwVQ_X7H1gUuf4jV73K-25" value="" style="endArrow=none;html=1;rounded=0;exitX=0.958;exitY=0.331;exitDx=0;exitDy=0;exitPerimeter=0;" parent="1" source="TBcClljO8CuMETRbptpR-55" target="TBcClljO8CuMETRbptpR-1" edge="1">
          <mxGeometry width="50" height="50" relative="1" as="geometry">
            <mxPoint x="580" y="630" as="sourcePoint" />
            <mxPoint x="630" y="580" as="targetPoint" />
          </mxGeometry>
        </mxCell>
        <mxCell id="QTwVQ_X7H1gUuf4jV73K-26" value="" style="endArrow=none;html=1;rounded=0;" parent="1" source="TBcClljO8CuMETRbptpR-32" target="TBcClljO8CuMETRbptpR-1" edge="1">
          <mxGeometry width="50" height="50" relative="1" as="geometry">
            <mxPoint x="580" y="560" as="sourcePoint" />
            <mxPoint x="630" y="510" as="targetPoint" />
          </mxGeometry>
        </mxCell>
        <mxCell id="QTwVQ_X7H1gUuf4jV73K-27" value="" style="endArrow=none;html=1;rounded=0;exitX=0;exitY=0.3333333333333333;exitDx=0;exitDy=0;exitPerimeter=0;entryX=1;entryY=0.5;entryDx=0;entryDy=0;" parent="1" source="TBcClljO8CuMETRbptpR-1" target="TBcClljO8CuMETRbptpR-66" edge="1">
          <mxGeometry width="50" height="50" relative="1" as="geometry">
            <mxPoint x="580" y="430" as="sourcePoint" />
            <mxPoint x="630" y="380" as="targetPoint" />
          </mxGeometry>
        </mxCell>
        <mxCell id="QTwVQ_X7H1gUuf4jV73K-28" value="" style="endArrow=none;html=1;rounded=0;entryX=1;entryY=1;entryDx=0;entryDy=0;exitX=0.25;exitY=0.1;exitDx=0;exitDy=0;exitPerimeter=0;" parent="1" source="TBcClljO8CuMETRbptpR-1" target="TBcClljO8CuMETRbptpR-39" edge="1">
          <mxGeometry width="50" height="50" relative="1" as="geometry">
            <mxPoint x="1040" y="400" as="sourcePoint" />
            <mxPoint x="630" y="380" as="targetPoint" />
          </mxGeometry>
        </mxCell>
        <mxCell id="QTwVQ_X7H1gUuf4jV73K-29" value="" style="endArrow=none;html=1;rounded=0;entryX=0.964;entryY=0.671;entryDx=0;entryDy=0;entryPerimeter=0;" parent="1" source="TBcClljO8CuMETRbptpR-1" target="TBcClljO8CuMETRbptpR-22" edge="1">
          <mxGeometry width="50" height="50" relative="1" as="geometry">
            <mxPoint x="580" y="430" as="sourcePoint" />
            <mxPoint x="630" y="380" as="targetPoint" />
          </mxGeometry>
        </mxCell>
        <mxCell id="QTwVQ_X7H1gUuf4jV73K-30" value="" style="endArrow=none;html=1;rounded=0;entryX=1;entryY=1;entryDx=0;entryDy=0;" parent="1" source="TBcClljO8CuMETRbptpR-1" target="TBcClljO8CuMETRbptpR-31" edge="1">
          <mxGeometry width="50" height="50" relative="1" as="geometry">
            <mxPoint x="1040" y="410" as="sourcePoint" />
            <mxPoint x="630" y="380" as="targetPoint" />
          </mxGeometry>
        </mxCell>
        <mxCell id="QTwVQ_X7H1gUuf4jV73K-31" value="" style="html=1;labelBackgroundColor=#ffffff;startArrow=none;startFill=0;startSize=6;endArrow=classic;endFill=1;endSize=6;jettySize=auto;orthogonalLoop=1;strokeWidth=1;dashed=1;fontSize=14;rounded=0;exitX=0.5;exitY=1;exitDx=0;exitDy=0;" parent="1" source="TBcClljO8CuMETRbptpR-29" target="TBcClljO8CuMETRbptpR-35" edge="1">
          <mxGeometry width="60" height="60" relative="1" as="geometry">
            <mxPoint x="510" y="460" as="sourcePoint" />
            <mxPoint x="570" y="400" as="targetPoint" />
          </mxGeometry>
        </mxCell>
        <mxCell id="QTwVQ_X7H1gUuf4jV73K-33" value="&amp;lt;&amp;lt;include&amp;gt;&amp;gt;" style="text;html=1;align=center;verticalAlign=middle;whiteSpace=wrap;rounded=0;rotation=0;" parent="1" vertex="1">
          <mxGeometry x="365" y="180" width="60" height="30" as="geometry" />
        </mxCell>
        <mxCell id="TKwz7FleylKgk5ALLyET-1" value="&lt;font style=&quot;font-size: 11px;&quot;&gt;&lt;span style=&quot;line-height: 107%; font-family: Aptos, sans-serif;&quot;&gt;Generate&lt;br/&gt;Inventory level&amp;nbsp;&lt;/span&gt;&lt;span style=&quot;white-space-collapse: preserve;&quot;&gt; Report&lt;/span&gt;&lt;/font&gt;" style="ellipse;whiteSpace=wrap;html=1;" parent="1" vertex="1">
          <mxGeometry x="365" y="640" width="120" height="50" as="geometry" />
        </mxCell>
        <mxCell id="TKwz7FleylKgk5ALLyET-3" value="" style="endArrow=none;html=1;rounded=0;exitX=1;exitY=0.5;exitDx=0;exitDy=0;entryX=0.5;entryY=0.5;entryDx=0;entryDy=0;entryPerimeter=0;" parent="1" source="TKwz7FleylKgk5ALLyET-1" target="TBcClljO8CuMETRbptpR-1" edge="1">
          <mxGeometry width="50" height="50" relative="1" as="geometry">
            <mxPoint x="635" y="677" as="sourcePoint" />
            <mxPoint x="1090" y="428" as="targetPoint" />
          </mxGeometry>
        </mxCell>
        <mxCell id="ShTIGJSS1UcgWf-vh8kS-3" value="edit user" style="ellipse;whiteSpace=wrap;html=1;" vertex="1" parent="1">
          <mxGeometry x="570" y="210" width="120" height="50" as="geometry" />
        </mxCell>
        <mxCell id="ShTIGJSS1UcgWf-vh8kS-4" value="add user" style="ellipse;whiteSpace=wrap;html=1;" vertex="1" parent="1">
          <mxGeometry x="670" y="140" width="120" height="50" as="geometry" />
        </mxCell>
        <mxCell id="ShTIGJSS1UcgWf-vh8kS-5" value="delete user" style="ellipse;whiteSpace=wrap;html=1;" vertex="1" parent="1">
          <mxGeometry x="580" y="300" width="120" height="50" as="geometry" />
        </mxCell>
        <mxCell id="ShTIGJSS1UcgWf-vh8kS-6" value="&amp;lt;&amp;lt;include&amp;gt;&amp;gt;" style="endArrow=open;endSize=12;dashed=1;html=1;rounded=0;entryX=0.5;entryY=1;entryDx=0;entryDy=0;" edge="1" parent="1" source="TBcClljO8CuMETRbptpR-22" target="ShTIGJSS1UcgWf-vh8kS-4">
          <mxGeometry width="160" relative="1" as="geometry">
            <mxPoint x="540" y="310" as="sourcePoint" />
            <mxPoint x="700" y="310" as="targetPoint" />
          </mxGeometry>
        </mxCell>
        <mxCell id="ShTIGJSS1UcgWf-vh8kS-7" value="&amp;lt;&amp;lt;include&amp;gt;&amp;gt;" style="endArrow=open;endSize=12;dashed=1;html=1;rounded=0;exitX=0.206;exitY=0.903;exitDx=0;exitDy=0;exitPerimeter=0;" edge="1" parent="1" source="TBcClljO8CuMETRbptpR-22" target="ShTIGJSS1UcgWf-vh8kS-5">
          <mxGeometry width="160" relative="1" as="geometry">
            <mxPoint x="806" y="262" as="sourcePoint" />
            <mxPoint x="740" y="200" as="targetPoint" />
          </mxGeometry>
        </mxCell>
        <mxCell id="ShTIGJSS1UcgWf-vh8kS-8" value="&amp;lt;&amp;lt;include&amp;gt;&amp;gt;" style="endArrow=open;endSize=12;dashed=1;html=1;rounded=0;entryX=1;entryY=0.5;entryDx=0;entryDy=0;exitX=0;exitY=0.5;exitDx=0;exitDy=0;" edge="1" parent="1" source="TBcClljO8CuMETRbptpR-22" target="ShTIGJSS1UcgWf-vh8kS-3">
          <mxGeometry width="160" relative="1" as="geometry">
            <mxPoint x="816" y="272" as="sourcePoint" />
            <mxPoint x="750" y="210" as="targetPoint" />
          </mxGeometry>
        </mxCell>
        <mxCell id="ShTIGJSS1UcgWf-vh8kS-9" value="category management" style="ellipse;whiteSpace=wrap;html=1;" vertex="1" parent="1">
          <mxGeometry x="760" y="-10" width="120" height="50" as="geometry" />
        </mxCell>
        <mxCell id="ShTIGJSS1UcgWf-vh8kS-11" value="" style="endArrow=none;html=1;rounded=0;entryX=1;entryY=1;entryDx=0;entryDy=0;exitX=0.25;exitY=0.1;exitDx=0;exitDy=0;exitPerimeter=0;" edge="1" parent="1" source="TBcClljO8CuMETRbptpR-1" target="ShTIGJSS1UcgWf-vh8kS-9">
          <mxGeometry width="50" height="50" relative="1" as="geometry">
            <mxPoint x="1080" y="370" as="sourcePoint" />
            <mxPoint x="780" y="90" as="targetPoint" />
          </mxGeometry>
        </mxCell>
        <mxCell id="ShTIGJSS1UcgWf-vh8kS-13" value="add category" style="ellipse;whiteSpace=wrap;html=1;" vertex="1" parent="1">
          <mxGeometry x="790" y="-170" width="120" height="50" as="geometry" />
        </mxCell>
        <mxCell id="ShTIGJSS1UcgWf-vh8kS-14" value="add category" style="ellipse;whiteSpace=wrap;html=1;" vertex="1" parent="1">
          <mxGeometry x="650" y="-150" width="120" height="50" as="geometry" />
        </mxCell>
        <mxCell id="ShTIGJSS1UcgWf-vh8kS-15" value="add category" style="ellipse;whiteSpace=wrap;html=1;" vertex="1" parent="1">
          <mxGeometry x="580" y="-80" width="120" height="50" as="geometry" />
        </mxCell>
        <mxCell id="ShTIGJSS1UcgWf-vh8kS-16" value="&amp;lt;&amp;lt;include&amp;gt;&amp;gt;" style="endArrow=open;endSize=12;dashed=1;html=1;rounded=0;entryX=0.295;entryY=0.896;entryDx=0;entryDy=0;entryPerimeter=0;" edge="1" parent="1" source="ShTIGJSS1UcgWf-vh8kS-9" target="ShTIGJSS1UcgWf-vh8kS-13">
          <mxGeometry width="160" relative="1" as="geometry">
            <mxPoint x="938" as="sourcePoint" />
            <mxPoint x="840" y="-64" as="targetPoint" />
          </mxGeometry>
        </mxCell>
        <mxCell id="ShTIGJSS1UcgWf-vh8kS-17" value="&amp;lt;&amp;lt;include&amp;gt;&amp;gt;" style="endArrow=open;endSize=12;dashed=1;html=1;rounded=0;entryX=0.808;entryY=0.915;entryDx=0;entryDy=0;entryPerimeter=0;" edge="1" parent="1" source="ShTIGJSS1UcgWf-vh8kS-9" target="ShTIGJSS1UcgWf-vh8kS-15">
          <mxGeometry width="160" relative="1" as="geometry">
            <mxPoint x="798" y="34" as="sourcePoint" />
            <mxPoint x="700" y="-30" as="targetPoint" />
          </mxGeometry>
        </mxCell>
        <mxCell id="ShTIGJSS1UcgWf-vh8kS-18" value="&amp;lt;&amp;lt;include&amp;gt;&amp;gt;" style="endArrow=open;endSize=12;dashed=1;html=1;rounded=0;entryX=0.637;entryY=0.976;entryDx=0;entryDy=0;entryPerimeter=0;exitX=0.345;exitY=0.111;exitDx=0;exitDy=0;exitPerimeter=0;" edge="1" parent="1" source="ShTIGJSS1UcgWf-vh8kS-9" target="ShTIGJSS1UcgWf-vh8kS-14">
          <mxGeometry width="160" relative="1" as="geometry">
            <mxPoint x="869" y="-10" as="sourcePoint" />
            <mxPoint x="771" y="-74" as="targetPoint" />
          </mxGeometry>
        </mxCell>
        <mxCell id="ShTIGJSS1UcgWf-vh8kS-19" value="place supplier orders" style="ellipse;whiteSpace=wrap;html=1;" vertex="1" parent="1">
          <mxGeometry x="480" y="550" width="120" height="50" as="geometry" />
        </mxCell>
        <mxCell id="ShTIGJSS1UcgWf-vh8kS-20" value="" style="endArrow=none;html=1;rounded=0;entryX=0.037;entryY=0.728;entryDx=0;entryDy=0;exitX=1;exitY=0.3333333333333333;exitDx=0;exitDy=0;exitPerimeter=0;entryPerimeter=0;" edge="1" parent="1" source="TBcClljO8CuMETRbptpR-5" target="ShTIGJSS1UcgWf-vh8kS-19">
          <mxGeometry width="50" height="50" relative="1" as="geometry">
            <mxPoint x="90" y="718" as="sourcePoint" />
            <mxPoint x="375" y="675" as="targetPoint" />
          </mxGeometry>
        </mxCell>
      </root>
    </mxGraphModel>
  </diagram>
</mxfile>
